<svg data-v-423bf9ae="" xmlns="http://www.w3.org/2000/svg" viewBox="0 0 628 90" class="iconLeftSlogan"><!----><!----><!----><g data-v-423bf9ae="" id="3558b00c-7bc8-494b-914d-3a48ab8743ae" fill="#000000" transform="matrix(4.5558086296446,0,0,4.5558086296446,65.18615482654803,-11.025058184994862)"><path d="M2.49 12.67L0.30 12.67L4.40 2.42L6.45 2.42L10.55 12.67L8.37 12.67L7.75 11.10L3.10 11.10L2.49 12.67ZM7 9.05L5.48 5.15L3.92 9.05L7 9.05ZM12.80 7.82L12.05 6.66L12.05 6.66Q13.35 5.84 15.06 5.84L15.06 5.84L15.06 5.84Q16.29 5.84 17.01 6.52L17.01 6.52L17.01 6.52Q17.73 7.21 17.73 8.57L17.73 8.57L17.73 12.67L15.81 12.67L15.81 12.13L15.81 12.13Q14.98 12.67 14.31 12.67L14.31 12.67L14.31 12.67Q12.94 12.67 12.26 12.09L12.26 12.09L12.26 12.09Q11.57 11.51 11.57 10.49L11.57 10.49L11.57 10.49Q11.57 9.53 12.22 8.78L12.22 8.78L12.22 8.78Q12.87 8.03 14.31 8.03L14.31 8.03L14.31 8.03Q14.97 8.03 15.81 8.44L15.81 8.44L15.81 8.23L15.81 8.23Q15.80 7.48 14.72 7.41L14.72 7.41L14.72 7.41Q13.49 7.41 12.80 7.82L12.80 7.82ZM15.81 10.62L15.81 10.62L15.81 9.85L15.81 9.85Q15.54 9.32 14.51 9.32L14.51 9.32L14.51 9.32Q13.28 9.46 13.21 10.28L13.21 10.28L13.21 10.28Q13.28 11.09 14.51 11.16L14.51 11.16L14.51 11.16Q15.54 11.16 15.81 10.62ZM21.20 5.83L21.20 6.59L21.20 6.59Q21.93 5.84 22.98 5.84L22.98 5.84L22.98 5.84Q23.32 5.84 23.62 5.89L23.62 5.89L23.32 7.78L23.32 7.78Q22.98 7.48 22.36 7.46L22.36 7.46L22.36 7.46Q21.66 7.51 21.20 8.47L21.20 8.47L21.20 12.67L19.28 12.67L19.28 6.04L21.20 5.83ZM27.97 12.74L27.97 12.74Q26.48 12.74 25.48 11.74L25.48 11.74L25.48 11.74Q24.48 10.74 24.48 9.26L24.48 9.26L24.48 9.26Q24.48 7.77 25.48 6.77L25.48 6.77L25.48 6.77Q26.48 5.77 27.97 5.77L27.97 5.77L27.97 5.77Q29.46 5.77 30.45 6.77L30.45 6.77L30.45 6.77Q31.45 7.77 31.45 9.26L31.45 9.26L31.45 9.26Q31.45 10.75 30.45 11.74L30.45 11.74L30.45 11.74Q29.46 12.74 27.97 12.74L27.97 12.74ZM27.96 11.09L27.96 11.09L27.96 11.09Q28.74 11.09 29.22 10.56L29.22 10.56L29.22 10.56Q29.71 10.04 29.71 9.26L29.71 9.26L29.71 9.26Q29.71 8.48 29.22 7.96L29.22 7.96L29.22 7.96Q28.74 7.43 27.95 7.43L27.95 7.43L27.95 7.43Q27.18 7.43 26.69 7.96L26.69 7.96L26.69 7.96Q26.21 8.48 26.21 9.26L26.21 9.26L26.21 9.26Q26.21 10.04 26.69 10.56L26.69 10.56L26.69 10.56Q27.18 11.09 27.96 11.09ZM34.67 8.33L34.67 8.33L34.67 12.67L32.75 12.67L32.75 6.04L34.67 5.83L34.67 6.45L34.67 6.45Q35.36 5.84 36.31 5.84L36.31 5.84L36.31 5.84Q37.60 5.84 38.29 6.62L38.29 6.62L38.29 6.62Q38.97 7.41 38.97 8.44L38.97 8.44L38.97 12.67L37.06 12.67L37.06 8.91L37.06 8.91Q37.06 8.23 36.72 7.85L36.72 7.85L36.72 7.85Q36.37 7.48 35.68 7.46L35.68 7.46L35.68 7.46Q35.09 7.50 34.67 8.33ZM50.13 12.67L50.13 12.67Q47.96 12.67 46.49 11.20L46.49 11.20L46.49 11.20Q45.01 9.73 45.01 7.53L45.01 7.53L45.01 7.53Q45.02 5.37 46.49 3.89L46.49 3.89L46.49 3.89Q47.96 2.42 50.13 2.42L50.13 2.42L50.13 2.42Q52.33 2.42 53.90 3.79L53.90 3.79L52.53 5.28L52.53 5.28Q51.49 4.46 50.13 4.46L50.13 4.46L50.13 4.46Q48.75 4.47 47.91 5.33L47.91 5.33L47.91 5.33Q47.07 6.18 47.07 7.51L47.07 7.51L47.07 7.51Q47.07 8.94 47.92 9.78L47.92 9.78L47.92 9.78Q48.77 10.62 50.15 10.62L50.15 10.62L50.15 10.62Q51.53 10.62 52.53 9.81L52.53 9.81L53.90 11.31L53.90 11.31Q52.34 12.67 50.13 12.67L50.13 12.67ZM55.89 11.72L55.89 11.72L55.89 11.72Q55.89 12.13 56.16 12.40L56.16 12.40L56.16 12.40Q56.44 12.67 56.92 12.67L56.92 12.67L56.92 12.67Q57.39 12.67 57.67 12.40L57.67 12.40L57.67 12.40Q57.94 12.13 57.94 11.72L57.94 11.72L57.94 11.72Q57.94 11.31 57.67 11.03L57.67 11.03L57.67 11.03Q57.39 10.75 56.90 10.75L56.90 10.75L56.90 10.75Q56.44 10.75 56.16 11.03L56.16 11.03L56.16 11.03Q55.89 11.31 55.89 11.72ZM68.20 2.42L68.20 2.42Q69.63 2.42 70.42 2.76L70.42 2.76L70.42 2.76Q71.20 3.10 71.89 3.79L71.89 3.79L70.52 5.15L70.52 5.15Q69.84 4.33 68.61 4.33L68.61 4.33L68.61 4.33Q67.38 4.33 67.03 4.92L67.03 4.92L67.03 4.92Q66.69 5.50 67.03 5.91L67.03 5.91L67.03 5.91Q67.38 6.32 68.61 6.52L68.61 6.52L68.61 6.52Q69.90 6.66 70.96 7.38L70.96 7.38L70.96 7.38Q72.02 8.09 72.02 9.67L72.02 9.67L72.02 9.67Q72.02 10.90 70.89 11.79L70.89 11.79L70.89 11.79Q69.76 12.67 68.26 12.67L68.26 12.67L68.26 12.67Q66.83 12.67 65.87 12.26L65.87 12.26L65.87 12.26Q64.91 11.85 64.23 11.17L64.23 11.17L65.60 9.80L65.60 9.80Q66.28 10.62 67.92 10.76L67.92 10.76L67.92 10.76Q69.29 10.76 69.63 10.18L69.63 10.18L69.63 10.18Q69.97 9.60 69.63 9.02L69.63 9.02L69.63 9.02Q69.29 8.44 67.92 8.30L67.92 8.30L67.92 8.30Q66.69 8.16 65.67 7.55L65.67 7.55L65.67 7.55Q64.64 6.93 64.64 5.43L64.64 5.43L64.64 5.43Q64.64 4.07 65.81 3.24L65.81 3.24L65.81 3.24Q66.97 2.42 68.20 2.42L68.20 2.42ZM74.58 7.82L73.83 6.66L73.83 6.66Q75.13 5.84 76.84 5.84L76.84 5.84L76.84 5.84Q78.07 5.84 78.78 6.52L78.78 6.52L78.78 6.52Q79.50 7.21 79.50 8.57L79.50 8.57L79.50 12.67L77.59 12.67L77.59 12.13L77.59 12.13Q76.75 12.67 76.08 12.67L76.08 12.67L76.08 12.67Q74.72 12.67 74.03 12.09L74.03 12.09L74.03 12.09Q73.35 11.51 73.35 10.49L73.35 10.49L73.35 10.49Q73.35 9.53 74.00 8.78L74.00 8.78L74.00 8.78Q74.64 8.03 76.08 8.03L76.08 8.03L76.08 8.03Q76.75 8.03 77.59 8.44L77.59 8.44L77.59 8.23L77.59 8.23Q77.57 7.48 76.49 7.41L76.49 7.41L76.49 7.41Q75.26 7.41 74.58 7.82L74.58 7.82ZM77.59 10.62L77.59 10.62L77.59 9.85L77.59 9.85Q77.31 9.32 76.29 9.32L76.29 9.32L76.29 9.32Q75.06 9.46 74.99 10.28L74.99 10.28L74.99 10.28Q75.06 11.09 76.29 11.16L76.29 11.16L76.29 11.16Q77.31 11.16 77.59 10.62ZM82.97 5.83L82.97 6.59L82.97 6.59Q83.71 5.84 84.76 5.84L84.76 5.84L84.76 5.84Q85.09 5.84 85.39 5.89L85.39 5.89L85.09 7.78L85.09 7.78Q84.76 7.48 84.14 7.46L84.14 7.46L84.14 7.46Q83.44 7.51 82.97 8.47L82.97 8.47L82.97 12.67L81.06 12.67L81.06 6.04L82.97 5.83ZM87.53 7.82L86.78 6.66L86.78 6.66Q88.08 5.84 89.79 5.84L89.79 5.84L89.79 5.84Q91.02 5.84 91.74 6.52L91.74 6.52L91.74 6.52Q92.46 7.21 92.46 8.57L92.46 8.57L92.46 12.67L90.54 12.67L90.54 12.13L90.54 12.13Q89.71 12.67 89.04 12.67L89.04 12.67L89.04 12.67Q87.67 12.67 86.99 12.09L86.99 12.09L86.99 12.09Q86.30 11.51 86.30 10.49L86.30 10.49L86.30 10.49Q86.30 9.53 86.95 8.78L86.95 8.78L86.95 8.78Q87.60 8.03 89.04 8.03L89.04 8.03L89.04 8.03Q89.70 8.03 90.54 8.44L90.54 8.44L90.54 8.23L90.54 8.23Q90.53 7.48 89.45 7.41L89.45 7.41L89.45 7.41Q88.22 7.41 87.53 7.82L87.53 7.82ZM90.54 10.62L90.54 10.62L90.54 9.85L90.54 9.85Q90.27 9.32 89.24 9.32L89.24 9.32L89.24 9.32Q88.01 9.46 87.94 10.28L87.94 10.28L87.94 10.28Q88.01 11.09 89.24 11.16L89.24 11.16L89.24 11.16Q90.27 11.16 90.54 10.62ZM96.08 12.67L94.17 12.67L94.17 2.42L96.08 2.42L96.08 12.67ZM97.72 9.26L97.72 9.26L97.72 9.26Q97.72 7.75 98.68 6.79L98.68 6.79L98.68 6.79Q99.63 5.84 101.14 5.84L101.14 5.84L101.14 5.84Q102.64 5.84 103.53 6.79L103.53 6.79L103.53 6.79Q104.42 7.75 104.42 9.26L104.42 9.26L104.42 9.94L99.70 9.94L99.70 9.94Q99.77 10.49 100.18 10.79L100.18 10.79L100.18 10.79Q100.59 11.10 101.14 11.10L101.14 11.10L101.14 11.10Q102.09 11.10 102.85 10.55L102.85 10.55L103.94 11.65L103.94 11.65Q103.19 12.67 101.14 12.67L101.14 12.67L101.14 12.67Q99.63 12.67 98.68 11.72L98.68 11.72L98.68 11.72Q97.72 10.76 97.72 9.26ZM102.50 8.57L102.50 8.57Q102.50 8.03 102.09 7.72L102.09 7.72L102.09 7.72Q101.68 7.41 101.14 7.41L101.14 7.41L101.14 7.41Q100.59 7.41 100.18 7.72L100.18 7.72L100.18 7.72Q99.77 8.03 99.77 8.57L99.77 8.57L102.50 8.57ZM110.46 5.84L112.38 6.04L112.38 12.13L112.38 12.13Q112.38 13.56 111.52 14.53L111.52 14.53L111.52 14.53Q110.67 15.49 109.37 15.54L109.37 15.54L108.96 15.59L108.96 15.59Q106.98 15.54 105.88 14.45L105.88 14.45L106.77 13.43L106.77 13.43Q107.52 13.97 108.60 14.04L108.60 14.04L108.60 14.04Q109.69 14.04 110.08 13.53L110.08 13.53L110.08 13.53Q110.46 13.02 110.46 12.40L110.46 12.40L110.46 12.06L110.46 12.06Q109.70 12.67 108.68 12.67L108.68 12.67L108.68 12.67Q107.11 12.67 106.33 11.75L106.33 11.75L106.33 11.75Q105.54 10.83 105.54 9.26L105.54 9.26L105.54 9.26Q105.54 7.75 106.39 6.79L106.39 6.79L106.39 6.79Q107.25 5.84 108.82 5.84L108.82 5.84L108.82 5.84Q109.98 5.91 110.46 6.46L110.46 6.46L110.46 5.84ZM110.46 9.87L110.46 9.87L110.46 8.76L110.46 8.76Q110.33 7.62 109.03 7.42L109.03 7.42L109.03 7.42Q107.32 7.48 107.18 9.12L107.18 9.12L107.18 9.12Q107.25 11.03 109.03 11.10L109.03 11.10L109.03 11.10Q110.33 10.90 110.46 9.87ZM117.87 10.25L117.87 10.25L117.87 5.83L119.78 5.83L119.78 12.67L117.87 12.67L117.87 12.05L117.87 12.05Q117.17 12.67 116.22 12.67L116.22 12.67L116.22 12.67Q114.93 12.67 114.24 11.88L114.24 11.88L114.24 11.88Q113.56 11.09 113.56 10.07L113.56 10.07L113.56 5.83L115.47 5.83L115.47 9.59L115.47 9.59Q115.47 10.27 115.81 10.65L115.81 10.65L115.81 10.65Q116.16 11.03 116.85 11.05L116.85 11.05L116.85 11.05Q117.44 11.01 117.87 10.25ZM123.35 12.67L121.43 12.67L121.43 5.83L123.35 5.83L123.35 12.67ZM121.37 4.20L121.37 4.20L121.37 4.20Q121.37 4.61 121.64 4.88L121.64 4.88L121.64 4.88Q121.91 5.15 122.39 5.15L122.39 5.15L122.39 5.15Q122.87 5.15 123.14 4.88L123.14 4.88L123.14 4.88Q123.42 4.61 123.42 4.20L123.42 4.20L123.42 4.20Q123.42 3.79 123.14 3.51L123.14 3.51L123.14 3.51Q122.87 3.23 122.38 3.23L122.38 3.23L122.38 3.23Q121.91 3.23 121.64 3.51L121.64 3.51L121.64 3.51Q121.37 3.79 121.37 4.20Z"></path></g><defs data-v-423bf9ae=""><linearGradient data-v-423bf9ae="" gradientTransform="rotate(25)" id="91a8e9f4-2258-4097-a5e8-48ef6175d9e4" x1="0%" y1="0%" x2="100%" y2="0%"><stop data-v-423bf9ae="" offset="0%" style="stop-color: rgb(81, 6, 255); stop-opacity: 1;"></stop><stop data-v-423bf9ae="" offset="100%" style="stop-color: rgb(97, 203, 242); stop-opacity: 1;"></stop></linearGradient></defs><g data-v-423bf9ae="" id="074bb5e8-28e2-4d26-97b4-ca3da389062b" transform="matrix(1.6879219901559062,0,0,1.6879219901559062,-24.38133199221207,-1.974097789985322)" stroke="none" fill="url(#91a8e9f4-2258-4097-a5e8-48ef6175d9e4)"><path d="M30.503 42.734c.333.446.539 1.035.539 1.771 0 .032-.014.067-.016.099-.088 1.766-2.547 4.137-2.547 4.137s-2.459-2.371-2.547-4.137c-.002-.032-.016-.067-.016-.099 0-.737.206-1.325.539-1.771-1.208.613-1.951 1.794-1.951 3.331 0 2.207 3.168 7.372 3.529 7.954l.446.717.446-.717c.361-.582 3.529-5.747 3.529-7.954 0-1.536-.743-2.718-1.951-3.331zM28.477 39.509c-1.189 0-2.377-.084-3.556-.241a27.696 27.696 0 0 1-1.276-.198c.235.765.514 1.519.856 2.252l.116.249.267.067c.807.202 1.632.311 2.462.375.377.029.754.07 1.133.07s.755-.041 1.133-.07c.83-.064 1.656-.172 2.463-.375l.267-.067.116-.25c.341-.734.62-1.488.855-2.252-.423.077-.849.14-1.275.197a26.865 26.865 0 0 1-3.561.243zM38.951 26.251a31.277 31.277 0 0 1-2.487 10.653c-.142.334-.279.668-.433.999l-.032.067 6.27 1.878v-8.646l-3.318-4.951zM20.494 36.904a31.261 31.261 0 0 1-2.336-8.807 31.516 31.516 0 0 1-.151-1.848l-3.318 4.954v8.646l6.271-1.879-.032-.067c-.155-.33-.292-.666-.434-.999zM34.344 10.119c-2.086-3.804-4.4-6.156-5.218-6.92-.083-.802-.258-1.414-.473-1.634a.354.354 0 0 0-.064-.055l-.11-.094-.11.094a.354.354 0 0 0-.064.055c-.215.221-.389.832-.473 1.634-.818.765-3.131 3.116-5.218 6.92a35.74 35.74 0 0 1 11.73 0zM28.479 18.762c-1.864 0-3.38 1.517-3.38 3.38s1.517 3.38 3.38 3.38 3.38-1.517 3.38-3.38-1.517-3.38-3.38-3.38z"></path><path d="M35.195 11.779c-.104-.22-.211-.429-.317-.641a34.856 34.856 0 0 0-12.799 0c-.106.212-.214.421-.317.641a29.765 29.765 0 0 0-2.878 12.819c0 4.469.97 8.814 2.881 12.916l.105.226.243.061c2.078.522 4.22.786 6.364.786h.001c2.145 0 4.288-.265 6.368-.787l.243-.061.105-.226c1.91-4.099 2.879-8.444 2.879-12.915 0-4.467-.968-8.78-2.878-12.819zm-6.716 15.725c-2.957 0-5.362-2.406-5.362-5.362s2.405-5.362 5.362-5.362 5.362 2.405 5.362 5.362-2.406 5.362-5.362 5.362z"></path></g><!----><g data-v-423bf9ae="" id="832279b7-80d4-47bd-9701-bff4bb0a11eb" fill="#000000" transform="matrix(1.226973934954545,0,0,1.226973934954545,65.69400994497025,55.34977064110586)"><path d="M7.83 3.92L7.48 3.92L1.89 3.92L0.70 3.92L0.70 4.19C0.70 4.34 0.80 4.42 0.98 4.44L1.12 4.44C1.19 4.44 1.29 4.45 1.43 4.45C1.57 4.45 1.72 4.47 1.89 4.47L1.89 13.26C1.72 13.26 1.57 13.27 1.43 13.27C1.29 13.27 1.19 13.29 1.12 13.29L0.98 13.29C0.80 13.30 0.70 13.38 0.70 13.54L0.70 13.82L1.89 13.82L2.60 13.82L3.78 13.82L3.78 13.54C3.78 13.38 3.70 13.30 3.51 13.29L3.37 13.29C3.30 13.29 3.21 13.27 3.07 13.27C2.93 13.27 2.77 13.26 2.60 13.26L2.60 9.27L6.30 9.27L6.30 8.67L2.60 8.67L2.60 4.51L7.21 4.51C7.24 5.18 7.27 5.56 7.27 5.63C7.28 5.85 7.38 5.96 7.57 5.96L7.91 5.96L7.91 3.92ZM24.35 3.92L23.63 3.92L22.27 3.92L22.27 4.19C22.27 4.34 22.37 4.42 22.55 4.44L22.72 4.44C22.82 4.44 22.96 4.45 23.13 4.45C23.30 4.45 23.46 4.47 23.63 4.47L23.63 10.04C23.63 10.50 23.56 10.92 23.42 11.33C23.28 11.73 23.09 12.08 22.82 12.38C22.55 12.67 22.25 12.89 21.87 13.06C21.49 13.23 21.07 13.31 20.59 13.31C20.12 13.31 19.68 13.23 19.31 13.06C18.93 12.89 18.61 12.66 18.35 12.36C18.09 12.07 17.91 11.72 17.77 11.33C17.63 10.93 17.56 10.50 17.56 10.04L17.56 4.47C17.72 4.47 17.89 4.45 18.06 4.45C18.23 4.45 18.37 4.44 18.47 4.44L18.63 4.44C18.82 4.42 18.91 4.34 18.91 4.19L18.91 3.92L17.56 3.92L16.84 3.92L15.67 3.92L15.67 4.19C15.67 4.34 15.75 4.42 15.93 4.44L16.07 4.44C16.14 4.44 16.24 4.45 16.38 4.45C16.52 4.45 16.67 4.47 16.84 4.47L16.84 10.04C16.84 10.58 16.93 11.09 17.09 11.56C17.26 12.04 17.51 12.46 17.84 12.81C18.16 13.16 18.56 13.44 19.03 13.64C19.49 13.83 20.02 13.93 20.59 13.93C21.17 13.93 21.69 13.83 22.15 13.64C22.61 13.44 23.02 13.16 23.34 12.81C23.66 12.46 23.91 12.04 24.08 11.56C24.25 11.09 24.35 10.58 24.35 10.04L24.35 4.47C24.51 4.47 24.65 4.45 24.79 4.45C24.93 4.45 25.05 4.44 25.12 4.44L25.24 4.44C25.42 4.42 25.52 4.34 25.52 4.19L25.52 3.92ZM39.91 11.97C39.72 11.97 39.63 12.08 39.62 12.31C39.62 12.32 39.62 12.38 39.61 12.43C39.59 12.49 39.59 12.59 39.58 12.71C39.56 12.84 39.55 13.01 39.54 13.20L35.45 13.20L35.45 4.47C35.62 4.47 35.76 4.45 35.90 4.45C36.04 4.45 36.15 4.44 36.22 4.44L36.34 4.44C36.53 4.42 36.62 4.34 36.62 4.19L36.62 3.92L35.45 3.92L34.73 3.92L33.54 3.92L33.54 4.19C33.54 4.34 33.64 4.42 33.82 4.44L33.96 4.44C34.03 4.44 34.13 4.45 34.27 4.45C34.41 4.45 34.57 4.47 34.73 4.47L34.73 13.26C34.57 13.26 34.41 13.27 34.27 13.27C34.13 13.27 34.03 13.29 33.96 13.29L33.82 13.29C33.64 13.30 33.54 13.38 33.54 13.54L33.54 13.82L34.73 13.82L40.01 13.82L40.14 13.82L40.26 13.82L40.26 13.55L40.26 12.99L40.26 11.97L39.98 11.97ZM55.06 11.97C54.87 11.97 54.78 12.08 54.77 12.31C54.77 12.32 54.77 12.38 54.75 12.43C54.74 12.49 54.74 12.59 54.73 12.71C54.71 12.84 54.70 13.01 54.68 13.20L50.60 13.20L50.60 4.47C50.76 4.47 50.90 4.45 51.04 4.45C51.18 4.45 51.30 4.44 51.37 4.44L51.49 4.44C51.67 4.42 51.77 4.34 51.77 4.19L51.77 3.92L50.60 3.92L49.88 3.92L48.69 3.92L48.69 4.19C48.69 4.34 48.79 4.42 48.97 4.44L49.11 4.44C49.18 4.44 49.28 4.45 49.42 4.45C49.56 4.45 49.71 4.47 49.88 4.47L49.88 13.26C49.71 13.26 49.56 13.27 49.42 13.27C49.28 13.27 49.18 13.29 49.11 13.29L48.97 13.29C48.79 13.30 48.69 13.38 48.69 13.54L48.69 13.82L49.88 13.82L55.16 13.82L55.29 13.82L55.41 13.82L55.41 13.55L55.41 12.99L55.41 11.97L55.13 11.97ZM79.94 9.91C79.80 9.65 79.60 9.39 79.37 9.21C79.13 9.03 78.88 8.88 78.58 8.75C78.29 8.62 77.97 8.51 77.66 8.41C77.35 8.32 77.04 8.20 76.75 8.11C76.45 7.99 76.19 7.87 75.95 7.71C75.71 7.56 75.53 7.38 75.39 7.15C75.25 6.93 75.17 6.65 75.17 6.31C75.17 6.06 75.22 5.82 75.32 5.59C75.42 5.35 75.56 5.15 75.74 4.97C75.92 4.79 76.15 4.65 76.43 4.55C76.71 4.45 77.01 4.40 77.38 4.40C78.05 4.40 78.67 4.51 79.23 4.75C79.27 5.54 79.30 5.99 79.30 6.06C79.31 6.29 79.39 6.41 79.59 6.41L79.93 6.41L79.93 4.38C79.04 4.00 78.20 3.81 77.38 3.81C76.92 3.81 76.51 3.88 76.15 4.02C75.78 4.16 75.49 4.34 75.25 4.58C75.01 4.82 74.82 5.08 74.69 5.39C74.56 5.70 74.51 6.02 74.51 6.36C74.51 6.78 74.58 7.14 74.72 7.42C74.86 7.70 75.05 7.92 75.29 8.12C75.53 8.32 75.78 8.46 76.08 8.58C76.37 8.71 76.69 8.82 77 8.92C77.31 9.02 77.60 9.11 77.91 9.21C78.20 9.31 78.47 9.45 78.71 9.60C78.95 9.76 79.13 9.94 79.27 10.16C79.41 10.39 79.48 10.68 79.48 11.03C79.48 11.35 79.42 11.66 79.31 11.94C79.20 12.22 79.04 12.46 78.83 12.67C78.62 12.88 78.36 13.05 78.05 13.16C77.74 13.29 77.39 13.33 77 13.33C76.22 13.33 75.56 13.20 75.03 12.95C75.01 12.75 75.01 12.54 75.00 12.32C74.98 12.10 74.98 11.91 74.97 11.76C74.96 11.61 74.96 11.52 74.96 11.51C74.94 11.28 74.84 11.17 74.65 11.17L74.31 11.17L74.31 13.02L74.31 13.20L74.31 13.38C75.17 13.75 76.05 13.93 76.97 13.93C77.48 13.93 77.92 13.85 78.32 13.69C78.71 13.54 79.04 13.31 79.31 13.05C79.58 12.78 79.80 12.46 79.94 12.10C80.08 11.73 80.15 11.34 80.15 10.92C80.15 10.51 80.08 10.18 79.94 9.91ZM95.93 3.92L95.73 3.92L88.44 3.92L88.23 3.92L88.13 3.92L88.13 5.96L88.48 5.96C88.68 5.96 88.76 5.85 88.77 5.63C88.77 5.53 88.80 5.17 88.83 4.52L91.73 4.52L91.73 13.26C91.56 13.26 91.42 13.27 91.28 13.27C91.14 13.27 91.03 13.29 90.96 13.29L90.83 13.29C90.65 13.30 90.55 13.38 90.55 13.54L90.55 13.82L91.73 13.82L92.44 13.82L93.63 13.82L93.63 13.54C93.63 13.38 93.53 13.30 93.35 13.29L93.21 13.29C93.14 13.29 93.04 13.27 92.90 13.27C92.76 13.27 92.61 13.26 92.44 13.26L92.44 4.52L95.33 4.52C95.37 5.24 95.38 5.60 95.38 5.63C95.40 5.85 95.49 5.96 95.69 5.96L96.03 5.96L96.03 3.92ZM112.62 13.22L112.15 13.17L108.37 3.91L107.66 3.91L103.87 13.17L103.42 13.22C103.24 13.23 103.15 13.33 103.15 13.50L103.15 13.82L103.60 13.82L103.89 13.82L104.15 13.82L104.24 13.82L105.56 13.82L105.56 13.50C105.56 13.31 105.45 13.23 105.24 13.22C105.22 13.22 105.20 13.20 105.15 13.20C105.11 13.20 105.06 13.19 104.96 13.19C104.86 13.19 104.73 13.19 104.59 13.17L105.57 10.75L105.64 10.57L110.38 10.57L110.45 10.75L111.43 13.17C111.29 13.19 111.17 13.19 111.08 13.19C110.98 13.19 110.91 13.20 110.87 13.20C110.82 13.20 110.80 13.22 110.78 13.22C110.57 13.23 110.46 13.31 110.46 13.50L110.46 13.82L111.78 13.82L111.87 13.82L112.14 13.82L112.42 13.82L112.88 13.82L112.88 13.50C112.88 13.33 112.80 13.23 112.62 13.22ZM107.81 5.22C107.84 5.14 107.88 5.04 107.91 4.94C107.94 4.84 107.98 4.75 108.01 4.63C108.04 4.75 108.08 4.84 108.11 4.94C108.14 5.04 108.18 5.12 108.21 5.21L110.17 10.04L105.87 10.04ZM128.25 12.21C128.23 12.18 128.18 12.15 128.14 12.15C128.11 12.15 128.10 12.15 128.07 12.17C128.06 12.18 128.03 12.21 128.00 12.22C127.81 12.40 127.60 12.56 127.40 12.70C127.20 12.84 126.99 12.94 126.76 13.03C126.52 13.13 126.27 13.20 125.99 13.24C125.71 13.29 125.40 13.31 125.05 13.31C124.49 13.31 123.94 13.22 123.47 13.01C122.98 12.81 122.57 12.52 122.22 12.14C121.87 11.76 121.58 11.28 121.38 10.74C121.18 10.19 121.09 9.56 121.09 8.86C121.09 8.18 121.18 7.56 121.38 7.01C121.59 6.47 121.87 6.01 122.23 5.61C122.60 5.24 123.03 4.94 123.54 4.73C124.04 4.52 124.59 4.42 125.19 4.42C126.08 4.42 126.91 4.56 127.64 4.89C127.68 5.78 127.72 6.30 127.72 6.41C127.74 6.64 127.82 6.75 128.02 6.75L128.35 6.75L128.35 4.51C127.18 4.03 126.11 3.81 125.19 3.81C124.47 3.81 123.83 3.92 123.23 4.17C122.64 4.42 122.11 4.76 121.69 5.21C121.25 5.66 120.93 6.19 120.69 6.80C120.46 7.42 120.34 8.11 120.34 8.86C120.34 9.63 120.47 10.32 120.69 10.95C120.92 11.58 121.24 12.10 121.65 12.54C122.05 12.99 122.54 13.33 123.12 13.57C123.69 13.80 124.31 13.93 124.99 13.93C125.40 13.93 125.78 13.90 126.13 13.83C126.46 13.76 126.78 13.66 127.08 13.54C127.36 13.41 127.62 13.26 127.86 13.09C128.10 12.91 128.32 12.73 128.53 12.50ZM145.04 13.29L144.96 13.29L144.77 13.29C144.69 13.29 144.59 13.27 144.49 13.27L140.46 9.06C140.38 8.96 140.31 8.89 140.22 8.83C140.14 8.78 140.06 8.74 139.96 8.71C140.04 8.68 140.11 8.64 140.18 8.58C140.25 8.53 140.34 8.46 140.42 8.36L144.21 4.45L144.48 4.45C144.56 4.45 144.62 4.44 144.66 4.44L144.75 4.44C144.93 4.42 145.03 4.34 145.03 4.19L145.03 3.91L144.05 3.91L143.92 3.91L142.11 3.91L142.11 4.19C142.11 4.34 142.21 4.42 142.39 4.44L142.56 4.44C142.66 4.44 142.79 4.45 142.95 4.45L143.40 4.45L139.73 8.22C139.68 8.27 139.62 8.33 139.58 8.36C139.54 8.39 139.48 8.40 139.43 8.43C139.37 8.44 139.33 8.47 139.26 8.47C139.19 8.48 139.10 8.48 139.02 8.48L138.43 8.48L138.43 4.45C138.60 4.45 138.75 4.44 138.89 4.44C139.03 4.44 139.13 4.42 139.20 4.42L139.34 4.42C139.52 4.41 139.61 4.33 139.61 4.17L139.61 3.91L138.43 3.91L137.72 3.91L136.54 3.91L136.54 4.17C136.54 4.33 136.64 4.41 136.82 4.42L136.95 4.42C137.02 4.42 137.13 4.44 137.27 4.44C137.41 4.44 137.55 4.45 137.72 4.45L137.72 13.26C137.55 13.26 137.41 13.27 137.27 13.27C137.13 13.27 137.02 13.29 136.95 13.29L136.82 13.29C136.64 13.30 136.54 13.38 136.54 13.54L136.54 13.82L137.72 13.82L138.43 13.82L139.61 13.82L139.61 13.54C139.61 13.38 139.52 13.30 139.34 13.29L139.20 13.29C139.13 13.29 139.03 13.27 138.89 13.27C138.75 13.27 138.60 13.26 138.43 13.26L138.43 9.04L139.08 9.04C139.19 9.04 139.29 9.04 139.36 9.06C139.43 9.07 139.48 9.09 139.54 9.11C139.59 9.14 139.65 9.17 139.69 9.21C139.73 9.25 139.78 9.28 139.83 9.34L143.68 13.27C143.54 13.27 143.37 13.29 143.21 13.29L142.80 13.29L142.62 13.29C142.44 13.30 142.34 13.38 142.34 13.54L142.34 13.82L144.21 13.82L144.27 13.82L144.44 13.82L145.03 13.82L145.32 13.82L145.32 13.54C145.32 13.38 145.22 13.30 145.04 13.29ZM177.77 3.92L177.23 3.92L177.18 3.92L175.71 3.92L175.71 4.19C175.71 4.34 175.80 4.42 175.98 4.44L176.11 4.44C176.16 4.44 176.26 4.45 176.40 4.45C176.54 4.45 176.68 4.47 176.85 4.47L174.47 12.24C174.44 12.33 174.41 12.43 174.40 12.54C174.38 12.66 174.36 12.75 174.33 12.87C174.30 12.75 174.29 12.63 174.26 12.53L174.17 12.24L171.37 4.10C171.35 4.05 171.32 3.99 171.28 3.96C171.23 3.93 171.18 3.92 171.11 3.92L170.91 3.92C170.84 3.92 170.79 3.93 170.74 3.98C170.70 4.02 170.66 4.05 170.65 4.10L167.85 12.25C167.82 12.35 167.79 12.43 167.76 12.54C167.73 12.64 167.72 12.75 167.69 12.88C167.68 12.78 167.65 12.67 167.62 12.54C167.61 12.43 167.58 12.33 167.55 12.24L165.17 4.47C165.34 4.47 165.48 4.45 165.61 4.45C165.73 4.45 165.82 4.44 165.87 4.44L165.98 4.44C166.17 4.42 166.26 4.34 166.26 4.19L166.26 3.92L164.79 3.92L164.21 3.92L163.60 3.92L163.60 4.19C163.60 4.34 163.70 4.42 163.88 4.44L163.98 4.44C164.02 4.44 164.07 4.45 164.14 4.45C164.21 4.45 164.29 4.47 164.37 4.47L167.33 13.82L167.96 13.82L170.90 5.22C170.94 5.11 170.97 5.00 171.00 4.87C171.02 5.00 171.05 5.11 171.09 5.22L174.02 13.82L174.66 13.82L177.60 4.47C177.69 4.47 177.76 4.45 177.83 4.45C177.90 4.45 177.95 4.44 178.00 4.44L178.09 4.44C178.28 4.42 178.36 4.34 178.36 4.19L178.36 3.92ZM187.60 3.92L186.41 3.92L186.41 4.19C186.41 4.34 186.51 4.42 186.69 4.44L186.83 4.44C186.90 4.44 187.00 4.45 187.14 4.45C187.28 4.45 187.43 4.47 187.60 4.47L187.60 13.26C187.43 13.26 187.28 13.27 187.14 13.27C187.00 13.27 186.90 13.29 186.83 13.29L186.69 13.29C186.51 13.30 186.42 13.38 186.42 13.54L186.42 13.82L187.60 13.82L193.54 13.82L193.54 13.22L193.54 11.76L193.19 11.76C192.99 11.76 192.91 11.89 192.89 12.11C192.89 12.14 192.88 12.19 192.88 12.29C192.88 12.39 192.88 12.53 192.86 12.74C192.85 12.95 192.84 13.09 192.84 13.22L188.31 13.22L188.31 9.09L192.26 9.09L192.26 8.51L188.31 8.51L188.31 4.51L192.84 4.51C192.86 5.12 192.89 5.50 192.89 5.63C192.91 5.85 192.99 5.96 193.19 5.96L193.54 5.96L193.54 4.51L193.54 3.92ZM209.23 9.52C208.81 9.11 208.21 8.86 207.42 8.75C207.75 8.67 208.03 8.55 208.28 8.40C208.53 8.25 208.75 8.08 208.92 7.87C209.09 7.66 209.23 7.43 209.31 7.20C209.40 6.96 209.45 6.71 209.45 6.44C209.45 6.05 209.37 5.68 209.24 5.38C209.12 5.07 208.91 4.80 208.64 4.58C208.38 4.37 208.04 4.20 207.62 4.09C207.20 3.98 206.71 3.92 206.15 3.92L203.31 3.92L202.12 3.92L202.12 4.19C202.12 4.34 202.22 4.42 202.40 4.44L202.54 4.44C202.61 4.44 202.71 4.45 202.85 4.45C202.99 4.45 203.14 4.47 203.31 4.47L203.31 13.26C203.14 13.26 202.99 13.27 202.85 13.27C202.71 13.27 202.61 13.29 202.54 13.29L202.40 13.29C202.22 13.30 202.13 13.38 202.13 13.54L202.13 13.82L203.31 13.82L206.51 13.82C207.05 13.82 207.51 13.76 207.93 13.64C208.35 13.51 208.70 13.34 208.98 13.10C209.26 12.87 209.48 12.59 209.64 12.25C209.79 11.91 209.86 11.54 209.86 11.12C209.86 10.46 209.65 9.93 209.23 9.52ZM204.02 4.48L206.15 4.48C207.03 4.48 207.69 4.66 208.11 5.00C208.53 5.35 208.74 5.84 208.74 6.51C208.74 6.76 208.70 7.03 208.60 7.27C208.50 7.50 208.35 7.71 208.14 7.91C207.93 8.11 207.66 8.26 207.34 8.37C207.02 8.48 206.63 8.55 206.16 8.55L204.02 8.55ZM208.47 12.68C208.03 13.06 207.37 13.24 206.50 13.24L204.02 13.24L204.02 9.07L206.51 9.07C206.93 9.07 207.30 9.11 207.62 9.21C207.94 9.31 208.22 9.45 208.45 9.62C208.67 9.80 208.84 10.00 208.96 10.25C209.08 10.50 209.15 10.79 209.15 11.10C209.15 11.79 208.92 12.31 208.47 12.68ZM237.43 6.80C237.20 6.19 236.88 5.68 236.46 5.25C236.04 4.82 235.55 4.48 234.98 4.26C234.40 4.03 233.74 3.92 233.04 3.92L229.61 3.92L228.42 3.92L228.42 4.19C228.42 4.34 228.52 4.42 228.70 4.44L228.84 4.44C228.91 4.44 229.01 4.45 229.15 4.45C229.29 4.45 229.45 4.47 229.61 4.47L229.61 13.26C229.45 13.26 229.29 13.27 229.15 13.27C229.01 13.27 228.91 13.29 228.84 13.29L228.70 13.29C228.52 13.30 228.42 13.38 228.42 13.54L228.42 13.82L229.61 13.82L233.04 13.82C233.74 13.82 234.40 13.71 234.98 13.48C235.55 13.26 236.04 12.92 236.46 12.49C236.88 12.05 237.20 11.54 237.43 10.92C237.65 10.30 237.78 9.63 237.78 8.86C237.78 8.11 237.65 7.42 237.43 6.80ZM236.74 10.72C236.54 11.27 236.29 11.72 235.94 12.10C235.59 12.47 235.17 12.75 234.68 12.95C234.19 13.15 233.65 13.24 233.04 13.24L230.33 13.24L230.33 4.49L233.04 4.49C233.65 4.49 234.19 4.59 234.68 4.79C235.17 4.98 235.59 5.26 235.94 5.64C236.29 6.02 236.54 6.47 236.74 7.01C236.94 7.56 237.03 8.18 237.03 8.86C237.03 9.56 236.94 10.18 236.74 10.72ZM247.25 3.92L246.06 3.92L246.06 4.19C246.06 4.34 246.16 4.42 246.34 4.44L246.48 4.44C246.55 4.44 246.65 4.45 246.79 4.45C246.93 4.45 247.09 4.47 247.25 4.47L247.25 13.26C247.09 13.26 246.93 13.27 246.79 13.27C246.65 13.27 246.55 13.29 246.48 13.29L246.34 13.29C246.16 13.30 246.08 13.38 246.08 13.54L246.08 13.82L247.25 13.82L253.19 13.82L253.19 13.22L253.19 11.76L252.84 11.76C252.64 11.76 252.56 11.89 252.55 12.11C252.55 12.14 252.53 12.19 252.53 12.29C252.53 12.39 252.53 12.53 252.52 12.74C252.50 12.95 252.49 13.09 252.49 13.22L247.97 13.22L247.97 9.09L251.92 9.09L251.92 8.51L247.97 8.51L247.97 4.51L252.49 4.51C252.52 5.12 252.55 5.50 252.55 5.63C252.56 5.85 252.64 5.96 252.84 5.96L253.19 5.96L253.19 4.51L253.19 3.92ZM270.68 3.92L270.12 3.92L270.09 3.92L268.62 3.92L268.62 4.19C268.62 4.34 268.70 4.42 268.88 4.44L269.01 4.44C269.07 4.44 269.15 4.45 269.28 4.45C269.40 4.45 269.54 4.47 269.70 4.47L266.49 12.32C266.41 12.53 266.34 12.75 266.28 13.01C266.22 12.77 266.15 12.53 266.07 12.32L262.84 4.47C262.99 4.47 263.14 4.45 263.27 4.45C263.40 4.45 263.48 4.44 263.54 4.44L263.65 4.44C263.83 4.42 263.93 4.34 263.93 4.19L263.93 3.92L262.43 3.92L261.87 3.92L261.27 3.92L261.27 4.19C261.27 4.34 261.37 4.42 261.55 4.44L261.65 4.44C261.69 4.44 261.76 4.45 261.83 4.45C261.90 4.45 262.00 4.47 262.09 4.47L265.96 13.82L266.59 13.82L270.45 4.47C270.55 4.47 270.65 4.45 270.72 4.45C270.79 4.45 270.86 4.44 270.90 4.44L270.98 4.44C271.17 4.42 271.26 4.34 271.26 4.19L271.26 3.92ZM280.50 3.92L279.31 3.92L279.31 4.19C279.31 4.34 279.41 4.42 279.59 4.44L279.73 4.44C279.80 4.44 279.90 4.45 280.04 4.45C280.18 4.45 280.34 4.47 280.50 4.47L280.50 13.26C280.34 13.26 280.18 13.27 280.04 13.27C279.90 13.27 279.80 13.29 279.73 13.29L279.59 13.29C279.41 13.30 279.33 13.38 279.33 13.54L279.33 13.82L280.50 13.82L286.44 13.82L286.44 13.22L286.44 11.76L286.09 11.76C285.89 11.76 285.81 11.89 285.80 12.11C285.80 12.14 285.78 12.19 285.78 12.29C285.78 12.39 285.78 12.53 285.77 12.74C285.75 12.95 285.74 13.09 285.74 13.22L281.22 13.22L281.22 9.09L285.17 9.09L285.17 8.51L281.22 8.51L281.22 4.51L285.74 4.51C285.77 5.12 285.80 5.50 285.80 5.63C285.81 5.85 285.89 5.96 286.09 5.96L286.44 5.96L286.44 4.51L286.44 3.92ZM301.39 11.97C301.20 11.97 301.11 12.08 301.10 12.31C301.10 12.32 301.10 12.38 301.08 12.43C301.07 12.49 301.07 12.59 301.06 12.71C301.04 12.84 301.03 13.01 301.01 13.20L296.93 13.20L296.93 4.47C297.09 4.47 297.23 4.45 297.37 4.45C297.51 4.45 297.63 4.44 297.70 4.44L297.82 4.44C298.00 4.42 298.10 4.34 298.10 4.19L298.10 3.92L296.93 3.92L296.21 3.92L295.02 3.92L295.02 4.19C295.02 4.34 295.12 4.42 295.30 4.44L295.44 4.44C295.51 4.44 295.61 4.45 295.75 4.45C295.89 4.45 296.04 4.47 296.21 4.47L296.21 13.26C296.04 13.26 295.89 13.27 295.75 13.27C295.61 13.27 295.51 13.29 295.44 13.29L295.30 13.29C295.12 13.30 295.02 13.38 295.02 13.54L295.02 13.82L296.21 13.82L301.49 13.82L301.62 13.82L301.74 13.82L301.74 13.55L301.74 12.99L301.74 11.97L301.46 11.97ZM318.88 8.86C318.88 8.11 318.75 7.41 318.53 6.79C318.30 6.17 317.98 5.64 317.56 5.19C317.14 4.75 316.65 4.40 316.08 4.16C315.50 3.92 314.85 3.79 314.15 3.79C313.45 3.79 312.82 3.92 312.24 4.16C311.67 4.40 311.16 4.75 310.74 5.19C310.32 5.64 310.00 6.17 309.78 6.79C309.55 7.41 309.43 8.11 309.43 8.86C309.43 9.63 309.55 10.33 309.78 10.95C310.00 11.56 310.32 12.10 310.74 12.54C311.16 12.99 311.67 13.33 312.24 13.57C312.82 13.80 313.45 13.93 314.15 13.93C314.85 13.93 315.50 13.80 316.08 13.57C316.65 13.33 317.14 12.99 317.56 12.54C317.98 12.10 318.30 11.56 318.53 10.95C318.75 10.33 318.88 9.63 318.88 8.86ZM318.12 8.86C318.12 9.56 318.04 10.18 317.84 10.72C317.65 11.27 317.38 11.75 317.03 12.12C316.68 12.50 316.26 12.81 315.77 13.01C315.28 13.20 314.75 13.30 314.15 13.30C313.56 13.30 313.03 13.20 312.54 13.01C312.05 12.81 311.63 12.50 311.28 12.12C310.93 11.75 310.65 11.27 310.45 10.72C310.25 10.18 310.17 9.56 310.17 8.86C310.17 8.18 310.25 7.55 310.45 7.00C310.65 6.45 310.93 5.98 311.28 5.60C311.63 5.22 312.05 4.91 312.54 4.72C313.03 4.52 313.56 4.41 314.15 4.41C314.75 4.41 315.28 4.52 315.77 4.72C316.26 4.91 316.68 5.22 317.03 5.60C317.38 5.98 317.65 6.45 317.84 7.00C318.04 7.55 318.12 8.18 318.12 8.86ZM333.38 4.68C332.79 4.17 331.91 3.92 330.75 3.92L328.34 3.92L327.15 3.92L327.15 4.19C327.15 4.34 327.25 4.42 327.43 4.44L327.57 4.44C327.64 4.44 327.74 4.45 327.88 4.45C328.02 4.45 328.17 4.47 328.34 4.47L328.34 13.26C328.17 13.26 328.02 13.27 327.88 13.27C327.74 13.27 327.64 13.29 327.57 13.29L327.43 13.29C327.25 13.30 327.15 13.38 327.15 13.54L327.15 13.82L328.34 13.82L329.06 13.82L330.23 13.82L330.23 13.54C330.23 13.38 330.13 13.30 329.95 13.29L329.83 13.29C329.76 13.29 329.64 13.27 329.50 13.27C329.36 13.27 329.22 13.26 329.06 13.26L329.06 9.83L330.75 9.83C331.30 9.83 331.79 9.74 332.22 9.60C332.65 9.45 333.02 9.25 333.33 8.99C333.63 8.72 333.87 8.41 334.03 8.05C334.19 7.69 334.26 7.29 334.26 6.86C334.26 5.92 333.97 5.18 333.38 4.68ZM333.35 7.81C333.23 8.11 333.05 8.36 332.81 8.57C332.57 8.78 332.28 8.95 331.93 9.07C331.58 9.20 331.18 9.25 330.75 9.25L329.06 9.25L329.06 4.48L330.75 4.48C331.67 4.48 332.37 4.69 332.85 5.10C333.31 5.50 333.55 6.09 333.55 6.85C333.55 7.20 333.48 7.52 333.35 7.81ZM343.64 3.92L342.45 3.92L342.45 4.19C342.45 4.34 342.55 4.42 342.73 4.44L342.87 4.44C342.94 4.44 343.04 4.45 343.18 4.45C343.32 4.45 343.48 4.47 343.64 4.47L343.64 13.26C343.48 13.26 343.32 13.27 343.18 13.27C343.04 13.27 342.94 13.29 342.87 13.29L342.73 13.29C342.55 13.30 342.47 13.38 342.47 13.54L342.47 13.82L343.64 13.82L349.58 13.82L349.58 13.22L349.58 11.76L349.23 11.76C349.03 11.76 348.95 11.89 348.94 12.11C348.94 12.14 348.92 12.19 348.92 12.29C348.92 12.39 348.92 12.53 348.91 12.74C348.89 12.95 348.88 13.09 348.88 13.22L344.36 13.22L344.36 9.09L348.31 9.09L348.31 8.51L344.36 8.51L344.36 4.51L348.88 4.51C348.91 5.12 348.94 5.50 348.94 5.63C348.95 5.85 349.03 5.96 349.23 5.96L349.58 5.96L349.58 4.51L349.58 3.92ZM366.16 13.29L366.06 13.29L365.88 13.29C365.79 13.29 365.71 13.27 365.62 13.27L362.66 9.53C362.57 9.42 362.46 9.32 362.35 9.25C362.78 9.21 363.17 9.11 363.52 8.96C363.87 8.81 364.15 8.61 364.41 8.37C364.64 8.13 364.84 7.85 364.97 7.55C365.09 7.24 365.16 6.89 365.16 6.51C365.16 5.66 364.88 5.03 364.32 4.58C363.76 4.14 362.91 3.92 361.76 3.92L359.35 3.92L358.18 3.92L358.18 4.19C358.18 4.34 358.26 4.42 358.44 4.44L358.58 4.44C358.65 4.44 358.75 4.45 358.89 4.45C359.03 4.45 359.18 4.47 359.35 4.47L359.35 13.26C359.18 13.26 359.03 13.27 358.89 13.27C358.75 13.27 358.65 13.29 358.58 13.29L358.44 13.29C358.26 13.30 358.16 13.38 358.16 13.54L358.16 13.82L359.35 13.82L360.07 13.82L361.24 13.82L361.24 13.54C361.24 13.38 361.14 13.30 360.96 13.29L360.82 13.29C360.75 13.29 360.65 13.27 360.51 13.27C360.37 13.27 360.23 13.26 360.07 13.26L360.07 9.34L361.24 9.34C361.44 9.34 361.58 9.35 361.66 9.39C361.75 9.44 361.83 9.52 361.91 9.62L365.09 13.64C365.15 13.71 365.19 13.75 365.25 13.78C365.30 13.80 365.37 13.82 365.44 13.82L365.51 13.82L366.06 13.82L366.42 13.82L366.42 13.54C366.42 13.38 366.34 13.30 366.16 13.29ZM361.66 8.81L360.07 8.81L360.07 4.48L361.76 4.48C362.64 4.48 363.31 4.66 363.78 5.00C364.24 5.33 364.46 5.87 364.46 6.57C364.46 6.92 364.41 7.21 364.28 7.49C364.15 7.77 363.96 7.99 363.72 8.19C363.48 8.39 363.19 8.55 362.84 8.65C362.49 8.75 362.10 8.81 361.66 8.81Z"></path></g></svg>