<svg data-v-423bf9ae="" xmlns="http://www.w3.org/2000/svg" viewBox="0 0 31.03526105278491 60" class="icon"><!----><!----><!----><!----><g data-v-423bf9ae="" id="59b7be05-039c-4afc-863c-79cdd7c7eb79" transform="matrix(1.125281326770604,0,0,1.125281326770604,-16.529257504187115,-1.5933987707975064)" stroke="none" fill="white"><path d="M30.503 42.734c.333.446.539 1.035.539 1.771 0 .032-.014.067-.016.099-.088 1.766-2.547 4.137-2.547 4.137s-2.459-2.371-2.547-4.137c-.002-.032-.016-.067-.016-.099 0-.737.206-1.325.539-1.771-1.208.613-1.951 1.794-1.951 3.331 0 2.207 3.168 7.372 3.529 7.954l.446.717.446-.717c.361-.582 3.529-5.747 3.529-7.954 0-1.536-.743-2.718-1.951-3.331zM28.477 39.509c-1.189 0-2.377-.084-3.556-.241a27.696 27.696 0 0 1-1.276-.198c.235.765.514 1.519.856 2.252l.116.249.267.067c.807.202 1.632.311 2.462.375.377.029.754.07 1.133.07s.755-.041 1.133-.07c.83-.064 1.656-.172 2.463-.375l.267-.067.116-.25c.341-.734.62-1.488.855-2.252-.423.077-.849.14-1.275.197a26.865 26.865 0 0 1-3.561.243zM38.951 26.251a31.277 31.277 0 0 1-2.487 10.653c-.142.334-.279.668-.433.999l-.032.067 6.27 1.878v-8.646l-3.318-4.951zM20.494 36.904a31.261 31.261 0 0 1-2.336-8.807 31.516 31.516 0 0 1-.151-1.848l-3.318 4.954v8.646l6.271-1.879-.032-.067c-.155-.33-.292-.666-.434-.999zM34.344 10.119c-2.086-3.804-4.4-6.156-5.218-6.92-.083-.802-.258-1.414-.473-1.634a.354.354 0 0 0-.064-.055l-.11-.094-.11.094a.354.354 0 0 0-.064.055c-.215.221-.389.832-.473 1.634-.818.765-3.131 3.116-5.218 6.92a35.74 35.74 0 0 1 11.73 0zM28.479 18.762c-1.864 0-3.38 1.517-3.38 3.38s1.517 3.38 3.38 3.38 3.38-1.517 3.38-3.38-1.517-3.38-3.38-3.38z"></path><path d="M35.195 11.779c-.104-.22-.211-.429-.317-.641a34.856 34.856 0 0 0-12.799 0c-.106.212-.214.421-.317.641a29.765 29.765 0 0 0-2.878 12.819c0 4.469.97 8.814 2.881 12.916l.105.226.243.061c2.078.522 4.22.786 6.364.786h.001c2.145 0 4.288-.265 6.368-.787l.243-.061.105-.226c1.91-4.099 2.879-8.444 2.879-12.915 0-4.467-.968-8.78-2.878-12.819zm-6.716 15.725c-2.957 0-5.362-2.406-5.362-5.362s2.405-5.362 5.362-5.362 5.362 2.405 5.362 5.362-2.406 5.362-5.362 5.362z"></path></g><!----></svg>